<svg xmlns="http://www.w3.org/2000/svg" width="113" height="94" viewBox="0 0 113.0 94.0">
<rect x="0" y="0" width="100%" height="100%" fill="white"/>
<line x1="12.00" y1="82.00" x2="20.00" y2="82.00" stroke="#ff6b4a" stroke-width="2.2" stroke-linecap="round"/>
<line x1="20.00" y1="82.00" x2="20.00" y2="67.00" stroke="#ff6b4a" stroke-width="2.2" stroke-linecap="round"/>
<line x1="20.00" y1="82.00" x2="39.00" y2="82.00" stroke="#ff6b4a" stroke-width="2.2" stroke-linecap="round"/>
<line x1="20.00" y1="67.00" x2="20.00" y2="50.00" stroke="#ff6b4a" stroke-width="2.2" stroke-linecap="round"/>
<line x1="20.00" y1="50.00" x2="20.00" y2="31.00" stroke="#ff6b4a" stroke-width="2.2" stroke-linecap="round"/>
<line x1="20.00" y1="31.00" x2="20.00" y2="12.00" stroke="#ff6b4a" stroke-width="2.2" stroke-linecap="round"/>
<line x1="20.00" y1="31.00" x2="39.00" y2="22.00" stroke="#ff6b4a" stroke-width="2.2" stroke-linecap="round"/>
<line x1="39.00" y1="82.00" x2="39.00" y2="66.00" stroke="#ff6b4a" stroke-width="2.2" stroke-linecap="round"/>
<line x1="39.00" y1="82.00" x2="57.50" y2="81.00" stroke="#ff6b4a" stroke-width="2.2" stroke-linecap="round"/>
<line x1="39.00" y1="50.00" x2="51.00" y2="50.00" stroke="#ff6b4a" stroke-width="2.2" stroke-linecap="round"/>
<line x1="39.00" y1="50.00" x2="39.00" y2="66.00" stroke="#ff6b4a" stroke-width="2.2" stroke-linecap="round"/>
<line x1="39.00" y1="50.00" x2="39.00" y2="36.00" stroke="#ff6b4a" stroke-width="2.2" stroke-linecap="round"/>
<line x1="39.00" y1="22.00" x2="39.00" y2="36.00" stroke="#ff6b4a" stroke-width="2.2" stroke-linecap="round"/>
<line x1="39.00" y1="22.00" x2="56.50" y2="24.00" stroke="#ff6b4a" stroke-width="2.2" stroke-linecap="round"/>
<line x1="51.00" y1="50.00" x2="63.00" y2="58.00" stroke="#ff6b4a" stroke-width="2.2" stroke-linecap="round"/>
<line x1="76.00" y1="80.00" x2="89.00" y2="80.00" stroke="#ff6b4a" stroke-width="2.2" stroke-linecap="round"/>
<line x1="76.00" y1="80.00" x2="76.00" y2="67.00" stroke="#ff6b4a" stroke-width="2.2" stroke-linecap="round"/>
<line x1="76.00" y1="80.00" x2="57.50" y2="81.00" stroke="#ff6b4a" stroke-width="2.2" stroke-linecap="round"/>
<line x1="76.00" y1="54.00" x2="76.00" y2="67.00" stroke="#ff6b4a" stroke-width="2.2" stroke-linecap="round"/>
<line x1="76.00" y1="54.00" x2="75.00" y2="40.00" stroke="#ff6b4a" stroke-width="2.2" stroke-linecap="round"/>
<line x1="74.00" y1="26.00" x2="92.00" y2="30.00" stroke="#ff6b4a" stroke-width="2.2" stroke-linecap="round"/>
<line x1="74.00" y1="26.00" x2="75.00" y2="40.00" stroke="#ff6b4a" stroke-width="2.2" stroke-linecap="round"/>
<line x1="74.00" y1="26.00" x2="56.50" y2="24.00" stroke="#ff6b4a" stroke-width="2.2" stroke-linecap="round"/>
<line x1="89.00" y1="80.00" x2="101.00" y2="80.00" stroke="#ff6b4a" stroke-width="2.2" stroke-linecap="round"/>
<line x1="20.00" y1="50.00" x2="29.50" y2="50.00" stroke="#3f7cff" stroke-width="2.4" stroke-linecap="round"/>
<line x1="39.00" y1="82.00" x2="39.00" y2="66.00" stroke="#3f7cff" stroke-width="2.4" stroke-linecap="round"/>
<line x1="39.00" y1="50.00" x2="49.00" y2="49.00" stroke="#3f7cff" stroke-width="2.4" stroke-linecap="round"/>
<line x1="39.00" y1="50.00" x2="29.50" y2="50.00" stroke="#3f7cff" stroke-width="2.4" stroke-linecap="round"/>
<line x1="39.00" y1="50.00" x2="39.00" y2="66.00" stroke="#3f7cff" stroke-width="2.4" stroke-linecap="round"/>
<line x1="63.00" y1="58.00" x2="69.50" y2="56.00" stroke="#3f7cff" stroke-width="2.4" stroke-linecap="round"/>
<line x1="63.00" y1="58.00" x2="68.50" y2="42.00" stroke="#3f7cff" stroke-width="2.4" stroke-linecap="round"/>
<line x1="76.00" y1="54.00" x2="69.50" y2="56.00" stroke="#3f7cff" stroke-width="2.4" stroke-linecap="round"/>
<line x1="76.00" y1="54.00" x2="82.50" y2="67.00" stroke="#3f7cff" stroke-width="2.4" stroke-linecap="round"/>
<line x1="74.00" y1="26.00" x2="68.50" y2="42.00" stroke="#3f7cff" stroke-width="2.4" stroke-linecap="round"/>
<line x1="89.00" y1="80.00" x2="82.50" y2="67.00" stroke="#3f7cff" stroke-width="2.4" stroke-linecap="round"/>
<text x="12.00" y="86.00" text-anchor="middle" font-size="14" fill="#14866d">★</text>
<circle cx="20.00" cy="82.00" r="1.8" fill="#14866d"/>
<circle cx="20.00" cy="67.00" r="1.8" fill="#14866d"/>
<circle cx="20.00" cy="50.00" r="1.8" fill="#14866d"/>
<circle cx="20.00" cy="31.00" r="1.8" fill="#14866d"/>
<circle cx="20.00" cy="12.00" r="1.8" fill="#14866d"/>
<circle cx="39.00" cy="82.00" r="1.8" fill="#14866d"/>
<circle cx="39.00" cy="50.00" r="1.8" fill="#14866d"/>
<circle cx="39.00" cy="22.00" r="1.8" fill="#14866d"/>
<circle cx="49.00" cy="49.00" r="1.8" fill="#14866d"/>
<circle cx="51.00" cy="50.00" r="1.8" fill="#14866d"/>
<circle cx="63.00" cy="58.00" r="1.8" fill="#14866d"/>
<circle cx="76.00" cy="80.00" r="1.8" fill="#14866d"/>
<circle cx="76.00" cy="54.00" r="1.8" fill="#14866d"/>
<circle cx="74.00" cy="26.00" r="1.8" fill="#14866d"/>
<circle cx="92.00" cy="30.00" r="1.8" fill="#14866d"/>
<circle cx="89.00" cy="80.00" r="1.8" fill="#14866d"/>
<circle cx="101.00" cy="80.00" r="1.8" fill="#14866d"/>
<circle cx="29.50" cy="50.00" r="1.8" fill="#14866d"/>
<circle cx="39.00" cy="66.00" r="1.8" fill="#14866d"/>
<circle cx="69.50" cy="56.00" r="1.8" fill="#14866d"/>
<circle cx="82.50" cy="67.00" r="1.8" fill="#14866d"/>
<circle cx="68.50" cy="42.00" r="1.8" fill="#14866d"/>
<circle cx="39.00" cy="66.00" r="1.8" fill="#14866d"/>
<circle cx="39.00" cy="36.00" r="1.8" fill="#14866d"/>
<circle cx="76.00" cy="67.00" r="1.8" fill="#14866d"/>
<circle cx="75.00" cy="40.00" r="1.8" fill="#14866d"/>
<circle cx="56.50" cy="24.00" r="1.8" fill="#14866d"/>
<circle cx="57.50" cy="81.00" r="1.8" fill="#14866d"/>
</svg>
