<svg xmlns="http://www.w3.org/2000/svg" width="112" height="104" viewBox="0 0 112.0 104.0">
<rect x="0" y="0" width="100%" height="100%" fill="white"/>
<line x1="22.00" y1="92.00" x2="22.00" y2="86.00" stroke="#ff6b4a" stroke-width="2.2" stroke-linecap="round"/>
<line x1="22.00" y1="92.00" x2="31.50" y2="92.00" stroke="#ff6b4a" stroke-width="2.2" stroke-linecap="round"/>
<line x1="22.00" y1="80.00" x2="22.00" y2="86.00" stroke="#ff6b4a" stroke-width="2.2" stroke-linecap="round"/>
<line x1="22.00" y1="80.00" x2="22.00" y2="74.00" stroke="#ff6b4a" stroke-width="2.2" stroke-linecap="round"/>
<line x1="22.00" y1="68.00" x2="22.00" y2="74.00" stroke="#ff6b4a" stroke-width="2.2" stroke-linecap="round"/>
<line x1="22.00" y1="68.00" x2="22.00" y2="61.50" stroke="#ff6b4a" stroke-width="2.2" stroke-linecap="round"/>
<line x1="22.00" y1="55.00" x2="22.00" y2="61.50" stroke="#ff6b4a" stroke-width="2.2" stroke-linecap="round"/>
<line x1="22.00" y1="55.00" x2="22.00" y2="48.00" stroke="#ff6b4a" stroke-width="2.2" stroke-linecap="round"/>
<line x1="22.00" y1="55.00" x2="31.50" y2="53.50" stroke="#ff6b4a" stroke-width="2.2" stroke-linecap="round"/>
<line x1="22.00" y1="41.00" x2="22.00" y2="48.00" stroke="#ff6b4a" stroke-width="2.2" stroke-linecap="round"/>
<line x1="22.00" y1="41.00" x2="22.00" y2="33.50" stroke="#ff6b4a" stroke-width="2.2" stroke-linecap="round"/>
<line x1="22.00" y1="26.00" x2="22.00" y2="33.50" stroke="#ff6b4a" stroke-width="2.2" stroke-linecap="round"/>
<line x1="22.00" y1="26.00" x2="22.00" y2="19.00" stroke="#ff6b4a" stroke-width="2.2" stroke-linecap="round"/>
<line x1="22.00" y1="26.00" x2="31.50" y2="28.00" stroke="#ff6b4a" stroke-width="2.2" stroke-linecap="round"/>
<line x1="22.00" y1="12.00" x2="22.00" y2="19.00" stroke="#ff6b4a" stroke-width="2.2" stroke-linecap="round"/>
<line x1="41.00" y1="92.00" x2="41.00" y2="84.00" stroke="#ff6b4a" stroke-width="2.2" stroke-linecap="round"/>
<line x1="41.00" y1="92.00" x2="31.50" y2="92.00" stroke="#ff6b4a" stroke-width="2.2" stroke-linecap="round"/>
<line x1="41.00" y1="92.00" x2="50.25" y2="92.00" stroke="#ff6b4a" stroke-width="2.2" stroke-linecap="round"/>
<line x1="41.00" y1="68.00" x2="41.00" y2="76.00" stroke="#ff6b4a" stroke-width="2.2" stroke-linecap="round"/>
<line x1="41.00" y1="68.00" x2="41.00" y2="60.00" stroke="#ff6b4a" stroke-width="2.2" stroke-linecap="round"/>
<line x1="41.00" y1="52.00" x2="41.00" y2="60.00" stroke="#ff6b4a" stroke-width="2.2" stroke-linecap="round"/>
<line x1="41.00" y1="52.00" x2="41.00" y2="44.67" stroke="#ff6b4a" stroke-width="2.2" stroke-linecap="round"/>
<line x1="41.00" y1="52.00" x2="31.50" y2="53.50" stroke="#ff6b4a" stroke-width="2.2" stroke-linecap="round"/>
<line x1="41.00" y1="52.00" x2="48.00" y2="52.00" stroke="#ff6b4a" stroke-width="2.2" stroke-linecap="round"/>
<line x1="41.00" y1="30.00" x2="41.00" y2="37.33" stroke="#ff6b4a" stroke-width="2.2" stroke-linecap="round"/>
<line x1="41.00" y1="30.00" x2="31.50" y2="28.00" stroke="#ff6b4a" stroke-width="2.2" stroke-linecap="round"/>
<line x1="41.00" y1="30.00" x2="50.00" y2="30.00" stroke="#ff6b4a" stroke-width="2.2" stroke-linecap="round"/>
<line x1="55.00" y1="52.00" x2="48.00" y2="52.00" stroke="#ff6b4a" stroke-width="2.2" stroke-linecap="round"/>
<line x1="55.00" y1="52.00" x2="62.67" y2="55.33" stroke="#ff6b4a" stroke-width="2.2" stroke-linecap="round"/>
<line x1="78.00" y1="92.00" x2="78.00" y2="84.00" stroke="#ff6b4a" stroke-width="2.2" stroke-linecap="round"/>
<line x1="78.00" y1="92.00" x2="68.75" y2="92.00" stroke="#ff6b4a" stroke-width="2.2" stroke-linecap="round"/>
<line x1="78.00" y1="92.00" x2="85.00" y2="92.00" stroke="#ff6b4a" stroke-width="2.2" stroke-linecap="round"/>
<line x1="78.00" y1="76.00" x2="78.00" y2="84.00" stroke="#ff6b4a" stroke-width="2.2" stroke-linecap="round"/>
<line x1="78.00" y1="76.00" x2="78.00" y2="69.00" stroke="#ff6b4a" stroke-width="2.2" stroke-linecap="round"/>
<line x1="78.00" y1="62.00" x2="78.00" y2="69.00" stroke="#ff6b4a" stroke-width="2.2" stroke-linecap="round"/>
<line x1="78.00" y1="62.00" x2="77.67" y2="51.33" stroke="#ff6b4a" stroke-width="2.2" stroke-linecap="round"/>
<line x1="78.00" y1="62.00" x2="70.33" y2="58.67" stroke="#ff6b4a" stroke-width="2.2" stroke-linecap="round"/>
<line x1="77.00" y1="30.00" x2="77.33" y2="40.67" stroke="#ff6b4a" stroke-width="2.2" stroke-linecap="round"/>
<line x1="77.00" y1="30.00" x2="68.00" y2="30.00" stroke="#ff6b4a" stroke-width="2.2" stroke-linecap="round"/>
<line x1="77.00" y1="30.00" x2="85.50" y2="32.00" stroke="#ff6b4a" stroke-width="2.2" stroke-linecap="round"/>
<line x1="94.00" y1="34.00" x2="85.50" y2="32.00" stroke="#ff6b4a" stroke-width="2.2" stroke-linecap="round"/>
<line x1="92.00" y1="92.00" x2="85.00" y2="92.00" stroke="#ff6b4a" stroke-width="2.2" stroke-linecap="round"/>
<line x1="92.00" y1="92.00" x2="96.00" y2="87.00" stroke="#ff6b4a" stroke-width="2.2" stroke-linecap="round"/>
<line x1="100.00" y1="82.00" x2="96.00" y2="87.00" stroke="#ff6b4a" stroke-width="2.2" stroke-linecap="round"/>
<line x1="41.00" y1="84.00" x2="41.00" y2="76.00" stroke="#ff6b4a" stroke-width="2.2" stroke-linecap="round"/>
<line x1="41.00" y1="44.67" x2="41.00" y2="37.33" stroke="#ff6b4a" stroke-width="2.2" stroke-linecap="round"/>
<line x1="77.67" y1="51.33" x2="77.33" y2="40.67" stroke="#ff6b4a" stroke-width="2.2" stroke-linecap="round"/>
<line x1="50.00" y1="30.00" x2="59.00" y2="30.00" stroke="#ff6b4a" stroke-width="2.2" stroke-linecap="round"/>
<line x1="59.00" y1="30.00" x2="68.00" y2="30.00" stroke="#ff6b4a" stroke-width="2.2" stroke-linecap="round"/>
<line x1="50.25" y1="92.00" x2="59.50" y2="92.00" stroke="#ff6b4a" stroke-width="2.2" stroke-linecap="round"/>
<line x1="59.50" y1="92.00" x2="68.75" y2="92.00" stroke="#ff6b4a" stroke-width="2.2" stroke-linecap="round"/>
<line x1="62.67" y1="55.33" x2="70.33" y2="58.67" stroke="#ff6b4a" stroke-width="2.2" stroke-linecap="round"/>
<line x1="22.00" y1="80.00" x2="12.00" y2="84.00" stroke="#3f7cff" stroke-width="2.4" stroke-linecap="round"/>
<line x1="22.00" y1="68.00" x2="12.00" y2="71.00" stroke="#3f7cff" stroke-width="2.4" stroke-linecap="round"/>
<line x1="22.00" y1="68.00" x2="31.50" y2="68.00" stroke="#3f7cff" stroke-width="2.4" stroke-linecap="round"/>
<line x1="22.00" y1="55.00" x2="31.50" y2="53.50" stroke="#3f7cff" stroke-width="2.4" stroke-linecap="round"/>
<line x1="22.00" y1="41.00" x2="17.00" y2="48.50" stroke="#3f7cff" stroke-width="2.4" stroke-linecap="round"/>
<line x1="12.00" y1="56.00" x2="17.00" y2="48.50" stroke="#3f7cff" stroke-width="2.4" stroke-linecap="round"/>
<line x1="41.00" y1="92.00" x2="41.00" y2="80.00" stroke="#3f7cff" stroke-width="2.4" stroke-linecap="round"/>
<line x1="41.00" y1="68.00" x2="41.00" y2="60.00" stroke="#3f7cff" stroke-width="2.4" stroke-linecap="round"/>
<line x1="41.00" y1="68.00" x2="31.50" y2="68.00" stroke="#3f7cff" stroke-width="2.4" stroke-linecap="round"/>
<line x1="41.00" y1="68.00" x2="47.00" y2="68.00" stroke="#3f7cff" stroke-width="2.4" stroke-linecap="round"/>
<line x1="41.00" y1="68.00" x2="41.00" y2="80.00" stroke="#3f7cff" stroke-width="2.4" stroke-linecap="round"/>
<line x1="41.00" y1="52.00" x2="31.50" y2="53.50" stroke="#3f7cff" stroke-width="2.4" stroke-linecap="round"/>
<line x1="41.00" y1="52.00" x2="41.00" y2="60.00" stroke="#3f7cff" stroke-width="2.4" stroke-linecap="round"/>
<line x1="53.00" y1="68.00" x2="64.00" y2="64.00" stroke="#3f7cff" stroke-width="2.4" stroke-linecap="round"/>
<line x1="53.00" y1="68.00" x2="47.00" y2="68.00" stroke="#3f7cff" stroke-width="2.4" stroke-linecap="round"/>
<line x1="64.00" y1="64.00" x2="71.00" y2="63.00" stroke="#3f7cff" stroke-width="2.4" stroke-linecap="round"/>
<line x1="64.00" y1="64.00" x2="68.33" y2="52.67" stroke="#3f7cff" stroke-width="2.4" stroke-linecap="round"/>
<line x1="78.00" y1="62.00" x2="71.00" y2="63.00" stroke="#3f7cff" stroke-width="2.4" stroke-linecap="round"/>
<line x1="78.00" y1="62.00" x2="82.67" y2="72.00" stroke="#3f7cff" stroke-width="2.4" stroke-linecap="round"/>
<line x1="77.00" y1="30.00" x2="72.67" y2="41.33" stroke="#3f7cff" stroke-width="2.4" stroke-linecap="round"/>
<line x1="92.00" y1="92.00" x2="87.33" y2="82.00" stroke="#3f7cff" stroke-width="2.4" stroke-linecap="round"/>
<line x1="82.67" y1="72.00" x2="87.33" y2="82.00" stroke="#3f7cff" stroke-width="2.4" stroke-linecap="round"/>
<line x1="68.33" y1="52.67" x2="72.67" y2="41.33" stroke="#3f7cff" stroke-width="2.4" stroke-linecap="round"/>
<circle cx="22.00" cy="92.00" r="1.8" fill="#14866d"/>
<circle cx="22.00" cy="80.00" r="1.8" fill="#14866d"/>
<circle cx="22.00" cy="68.00" r="1.8" fill="#14866d"/>
<circle cx="22.00" cy="55.00" r="1.8" fill="#14866d"/>
<circle cx="22.00" cy="41.00" r="1.8" fill="#14866d"/>
<circle cx="22.00" cy="26.00" r="1.8" fill="#14866d"/>
<circle cx="22.00" cy="12.00" r="1.8" fill="#14866d"/>
<circle cx="12.00" cy="84.00" r="1.8" fill="#14866d"/>
<circle cx="12.00" cy="71.00" r="1.8" fill="#14866d"/>
<circle cx="12.00" cy="56.00" r="1.8" fill="#14866d"/>
<circle cx="41.00" cy="92.00" r="1.8" fill="#14866d"/>
<circle cx="41.00" cy="68.00" r="1.8" fill="#14866d"/>
<circle cx="41.00" cy="52.00" r="1.8" fill="#14866d"/>
<circle cx="41.00" cy="30.00" r="1.8" fill="#14866d"/>
<circle cx="53.00" cy="68.00" r="1.8" fill="#14866d"/>
<circle cx="55.00" cy="52.00" r="1.8" fill="#14866d"/>
<circle cx="64.00" cy="64.00" r="1.8" fill="#14866d"/>
<circle cx="78.00" cy="92.00" r="1.8" fill="#14866d"/>
<text x="78.00" y="80.00" text-anchor="middle" font-size="14" fill="#14866d">★</text>
<circle cx="78.00" cy="62.00" r="1.8" fill="#14866d"/>
<circle cx="77.00" cy="30.00" r="1.8" fill="#14866d"/>
<circle cx="94.00" cy="34.00" r="1.8" fill="#14866d"/>
<circle cx="92.00" cy="92.00" r="1.8" fill="#14866d"/>
<circle cx="100.00" cy="82.00" r="1.8" fill="#14866d"/>
<circle cx="31.50" cy="53.50" r="1.8" fill="#14866d"/>
<circle cx="41.00" cy="60.00" r="1.8" fill="#14866d"/>
<circle cx="31.50" cy="68.00" r="1.8" fill="#14866d"/>
<circle cx="17.00" cy="48.50" r="1.8" fill="#14866d"/>
<circle cx="47.00" cy="68.00" r="1.8" fill="#14866d"/>
<circle cx="71.00" cy="63.00" r="1.8" fill="#14866d"/>
<circle cx="82.67" cy="72.00" r="1.8" fill="#14866d"/>
<circle cx="87.33" cy="82.00" r="1.8" fill="#14866d"/>
<circle cx="68.33" cy="52.67" r="1.8" fill="#14866d"/>
<circle cx="72.67" cy="41.33" r="1.8" fill="#14866d"/>
<circle cx="41.00" cy="80.00" r="1.8" fill="#14866d"/>
<circle cx="22.00" cy="86.00" r="1.8" fill="#14866d"/>
<circle cx="22.00" cy="74.00" r="1.8" fill="#14866d"/>
<circle cx="22.00" cy="61.50" r="1.8" fill="#14866d"/>
<circle cx="22.00" cy="48.00" r="1.8" fill="#14866d"/>
<circle cx="22.00" cy="33.50" r="1.8" fill="#14866d"/>
<circle cx="22.00" cy="19.00" r="1.8" fill="#14866d"/>
<circle cx="41.00" cy="84.00" r="1.8" fill="#14866d"/>
<circle cx="41.00" cy="76.00" r="1.8" fill="#14866d"/>
<circle cx="41.00" cy="60.00" r="1.8" fill="#14866d"/>
<circle cx="41.00" cy="44.67" r="1.8" fill="#14866d"/>
<circle cx="41.00" cy="37.33" r="1.8" fill="#14866d"/>
<circle cx="78.00" cy="84.00" r="1.8" fill="#14866d"/>
<circle cx="78.00" cy="69.00" r="1.8" fill="#14866d"/>
<circle cx="77.67" cy="51.33" r="1.8" fill="#14866d"/>
<circle cx="77.33" cy="40.67" r="1.8" fill="#14866d"/>
<circle cx="31.50" cy="28.00" r="1.8" fill="#14866d"/>
<circle cx="50.00" cy="30.00" r="1.8" fill="#14866d"/>
<circle cx="59.00" cy="30.00" r="1.8" fill="#14866d"/>
<circle cx="68.00" cy="30.00" r="1.8" fill="#14866d"/>
<circle cx="85.50" cy="32.00" r="1.8" fill="#14866d"/>
<circle cx="31.50" cy="92.00" r="1.8" fill="#14866d"/>
<circle cx="50.25" cy="92.00" r="1.8" fill="#14866d"/>
<circle cx="59.50" cy="92.00" r="1.8" fill="#14866d"/>
<circle cx="68.75" cy="92.00" r="1.8" fill="#14866d"/>
<circle cx="85.00" cy="92.00" r="1.8" fill="#14866d"/>
<circle cx="96.00" cy="87.00" r="1.8" fill="#14866d"/>
<circle cx="31.50" cy="53.50" r="1.8" fill="#14866d"/>
<circle cx="48.00" cy="52.00" r="1.8" fill="#14866d"/>
<circle cx="62.67" cy="55.33" r="1.8" fill="#14866d"/>
<circle cx="70.33" cy="58.67" r="1.8" fill="#14866d"/>
</svg>
