<svg xmlns="http://www.w3.org/2000/svg" width="114" height="122" viewBox="0 0 114.0 122.0">
<rect x="0" y="0" width="100%" height="100%" fill="white"/>
<line x1="20.00" y1="108.00" x2="20.00" y2="102.00" stroke="#ff6b4a" stroke-width="2.2" stroke-linecap="round"/>
<line x1="20.00" y1="108.00" x2="28.00" y2="108.00" stroke="#ff6b4a" stroke-width="2.2" stroke-linecap="round"/>
<line x1="20.00" y1="96.00" x2="20.00" y2="102.00" stroke="#ff6b4a" stroke-width="2.2" stroke-linecap="round"/>
<line x1="20.00" y1="96.00" x2="20.00" y2="90.00" stroke="#ff6b4a" stroke-width="2.2" stroke-linecap="round"/>
<line x1="20.00" y1="96.00" x2="25.33" y2="93.33" stroke="#ff6b4a" stroke-width="2.2" stroke-linecap="round"/>
<line x1="20.00" y1="84.00" x2="20.00" y2="90.00" stroke="#ff6b4a" stroke-width="2.2" stroke-linecap="round"/>
<line x1="20.00" y1="84.00" x2="20.00" y2="78.00" stroke="#ff6b4a" stroke-width="2.2" stroke-linecap="round"/>
<line x1="20.00" y1="72.00" x2="20.00" y2="78.00" stroke="#ff6b4a" stroke-width="2.2" stroke-linecap="round"/>
<line x1="20.00" y1="72.00" x2="20.00" y2="66.00" stroke="#ff6b4a" stroke-width="2.2" stroke-linecap="round"/>
<line x1="20.00" y1="72.00" x2="28.00" y2="72.00" stroke="#ff6b4a" stroke-width="2.2" stroke-linecap="round"/>
<line x1="20.00" y1="60.00" x2="20.00" y2="66.00" stroke="#ff6b4a" stroke-width="2.2" stroke-linecap="round"/>
<line x1="20.00" y1="60.00" x2="20.00" y2="54.00" stroke="#ff6b4a" stroke-width="2.2" stroke-linecap="round"/>
<line x1="20.00" y1="48.00" x2="20.00" y2="54.00" stroke="#ff6b4a" stroke-width="2.2" stroke-linecap="round"/>
<line x1="20.00" y1="48.00" x2="20.00" y2="42.00" stroke="#ff6b4a" stroke-width="2.2" stroke-linecap="round"/>
<line x1="20.00" y1="48.00" x2="25.33" y2="44.00" stroke="#ff6b4a" stroke-width="2.2" stroke-linecap="round"/>
<line x1="20.00" y1="36.00" x2="20.00" y2="42.00" stroke="#ff6b4a" stroke-width="2.2" stroke-linecap="round"/>
<line x1="20.00" y1="36.00" x2="20.00" y2="30.00" stroke="#ff6b4a" stroke-width="2.2" stroke-linecap="round"/>
<line x1="20.00" y1="24.00" x2="20.00" y2="30.00" stroke="#ff6b4a" stroke-width="2.2" stroke-linecap="round"/>
<line x1="20.00" y1="24.00" x2="20.00" y2="18.00" stroke="#ff6b4a" stroke-width="2.2" stroke-linecap="round"/>
<line x1="20.00" y1="24.00" x2="25.33" y2="21.33" stroke="#ff6b4a" stroke-width="2.2" stroke-linecap="round"/>
<line x1="20.00" y1="12.00" x2="20.00" y2="18.00" stroke="#ff6b4a" stroke-width="2.2" stroke-linecap="round"/>
<line x1="36.00" y1="108.00" x2="36.00" y2="101.33" stroke="#ff6b4a" stroke-width="2.2" stroke-linecap="round"/>
<line x1="36.00" y1="108.00" x2="28.00" y2="108.00" stroke="#ff6b4a" stroke-width="2.2" stroke-linecap="round"/>
<line x1="36.00" y1="108.00" x2="45.20" y2="107.20" stroke="#ff6b4a" stroke-width="2.2" stroke-linecap="round"/>
<line x1="36.00" y1="88.00" x2="36.00" y2="94.67" stroke="#ff6b4a" stroke-width="2.2" stroke-linecap="round"/>
<line x1="36.00" y1="88.00" x2="36.00" y2="80.00" stroke="#ff6b4a" stroke-width="2.2" stroke-linecap="round"/>
<line x1="36.00" y1="88.00" x2="30.67" y2="90.67" stroke="#ff6b4a" stroke-width="2.2" stroke-linecap="round"/>
<line x1="36.00" y1="88.00" x2="44.67" y2="88.67" stroke="#ff6b4a" stroke-width="2.2" stroke-linecap="round"/>
<line x1="36.00" y1="88.00" x2="42.67" y2="84.00" stroke="#ff6b4a" stroke-width="2.2" stroke-linecap="round"/>
<line x1="36.00" y1="72.00" x2="36.00" y2="80.00" stroke="#ff6b4a" stroke-width="2.2" stroke-linecap="round"/>
<line x1="36.00" y1="72.00" x2="36.00" y2="64.00" stroke="#ff6b4a" stroke-width="2.2" stroke-linecap="round"/>
<line x1="36.00" y1="72.00" x2="28.00" y2="72.00" stroke="#ff6b4a" stroke-width="2.2" stroke-linecap="round"/>
<line x1="36.00" y1="72.00" x2="40.67" y2="68.67" stroke="#ff6b4a" stroke-width="2.2" stroke-linecap="round"/>
<line x1="36.00" y1="56.00" x2="36.00" y2="64.00" stroke="#ff6b4a" stroke-width="2.2" stroke-linecap="round"/>
<line x1="36.00" y1="56.00" x2="36.00" y2="49.33" stroke="#ff6b4a" stroke-width="2.2" stroke-linecap="round"/>
<line x1="36.00" y1="36.00" x2="36.00" y2="42.67" stroke="#ff6b4a" stroke-width="2.2" stroke-linecap="round"/>
<line x1="36.00" y1="36.00" x2="36.00" y2="29.33" stroke="#ff6b4a" stroke-width="2.2" stroke-linecap="round"/>
<line x1="36.00" y1="36.00" x2="30.67" y2="40.00" stroke="#ff6b4a" stroke-width="2.2" stroke-linecap="round"/>
<line x1="36.00" y1="36.00" x2="45.20" y2="34.80" stroke="#ff6b4a" stroke-width="2.2" stroke-linecap="round"/>
<line x1="36.00" y1="16.00" x2="36.00" y2="22.67" stroke="#ff6b4a" stroke-width="2.2" stroke-linecap="round"/>
<line x1="36.00" y1="16.00" x2="30.67" y2="18.67" stroke="#ff6b4a" stroke-width="2.2" stroke-linecap="round"/>
<line x1="36.00" y1="16.00" x2="44.80" y2="15.20" stroke="#ff6b4a" stroke-width="2.2" stroke-linecap="round"/>
<line x1="56.00" y1="76.00" x2="60.00" y2="70.00" stroke="#ff6b4a" stroke-width="2.2" stroke-linecap="round"/>
<line x1="56.00" y1="76.00" x2="49.33" y2="80.00" stroke="#ff6b4a" stroke-width="2.2" stroke-linecap="round"/>
<line x1="56.00" y1="76.00" x2="59.00" y2="69.00" stroke="#ff6b4a" stroke-width="2.2" stroke-linecap="round"/>
<line x1="62.00" y1="90.00" x2="53.33" y2="89.33" stroke="#ff6b4a" stroke-width="2.2" stroke-linecap="round"/>
<line x1="62.00" y1="90.00" x2="68.67" y2="88.67" stroke="#ff6b4a" stroke-width="2.2" stroke-linecap="round"/>
<line x1="82.00" y1="104.00" x2="82.00" y2="98.00" stroke="#ff6b4a" stroke-width="2.2" stroke-linecap="round"/>
<line x1="82.00" y1="104.00" x2="72.80" y2="104.80" stroke="#ff6b4a" stroke-width="2.2" stroke-linecap="round"/>
<line x1="82.00" y1="104.00" x2="88.00" y2="107.00" stroke="#ff6b4a" stroke-width="2.2" stroke-linecap="round"/>
<line x1="82.00" y1="86.00" x2="82.00" y2="92.00" stroke="#ff6b4a" stroke-width="2.2" stroke-linecap="round"/>
<line x1="82.00" y1="86.00" x2="82.00" y2="78.67" stroke="#ff6b4a" stroke-width="2.2" stroke-linecap="round"/>
<line x1="82.00" y1="86.00" x2="75.33" y2="87.33" stroke="#ff6b4a" stroke-width="2.2" stroke-linecap="round"/>
<line x1="82.00" y1="86.00" x2="88.67" y2="84.00" stroke="#ff6b4a" stroke-width="2.2" stroke-linecap="round"/>
<line x1="82.00" y1="64.00" x2="82.00" y2="71.33" stroke="#ff6b4a" stroke-width="2.2" stroke-linecap="round"/>
<line x1="82.00" y1="64.00" x2="82.00" y2="57.33" stroke="#ff6b4a" stroke-width="2.2" stroke-linecap="round"/>
<line x1="82.00" y1="64.00" x2="74.00" y2="63.50" stroke="#ff6b4a" stroke-width="2.2" stroke-linecap="round"/>
<line x1="82.00" y1="44.00" x2="82.00" y2="50.67" stroke="#ff6b4a" stroke-width="2.2" stroke-linecap="round"/>
<line x1="82.00" y1="44.00" x2="82.00" y2="37.00" stroke="#ff6b4a" stroke-width="2.2" stroke-linecap="round"/>
<line x1="82.00" y1="44.00" x2="77.33" y2="48.67" stroke="#ff6b4a" stroke-width="2.2" stroke-linecap="round"/>
<line x1="82.00" y1="30.00" x2="82.00" y2="37.00" stroke="#ff6b4a" stroke-width="2.2" stroke-linecap="round"/>
<line x1="82.00" y1="30.00" x2="81.33" y2="24.00" stroke="#ff6b4a" stroke-width="2.2" stroke-linecap="round"/>
<line x1="82.00" y1="30.00" x2="72.80" y2="31.20" stroke="#ff6b4a" stroke-width="2.2" stroke-linecap="round"/>
<line x1="82.00" y1="30.00" x2="88.67" y2="35.33" stroke="#ff6b4a" stroke-width="2.2" stroke-linecap="round"/>
<line x1="80.00" y1="12.00" x2="80.67" y2="18.00" stroke="#ff6b4a" stroke-width="2.2" stroke-linecap="round"/>
<line x1="80.00" y1="12.00" x2="71.20" y2="12.80" stroke="#ff6b4a" stroke-width="2.2" stroke-linecap="round"/>
<line x1="80.00" y1="12.00" x2="87.33" y2="13.33" stroke="#ff6b4a" stroke-width="2.2" stroke-linecap="round"/>
<line x1="102.00" y1="16.00" x2="94.67" y2="14.67" stroke="#ff6b4a" stroke-width="2.2" stroke-linecap="round"/>
<line x1="102.00" y1="46.00" x2="95.33" y2="40.67" stroke="#ff6b4a" stroke-width="2.2" stroke-linecap="round"/>
<line x1="102.00" y1="80.00" x2="95.33" y2="82.00" stroke="#ff6b4a" stroke-width="2.2" stroke-linecap="round"/>
<line x1="102.00" y1="80.00" x2="97.00" y2="87.00" stroke="#ff6b4a" stroke-width="2.2" stroke-linecap="round"/>
<line x1="94.00" y1="110.00" x2="88.00" y2="107.00" stroke="#ff6b4a" stroke-width="2.2" stroke-linecap="round"/>
<line x1="94.00" y1="110.00" x2="93.00" y2="102.00" stroke="#ff6b4a" stroke-width="2.2" stroke-linecap="round"/>
<line x1="92.00" y1="94.00" x2="93.00" y2="102.00" stroke="#ff6b4a" stroke-width="2.2" stroke-linecap="round"/>
<line x1="92.00" y1="94.00" x2="97.00" y2="87.00" stroke="#ff6b4a" stroke-width="2.2" stroke-linecap="round"/>
<line x1="68.00" y1="58.00" x2="64.00" y2="64.00" stroke="#ff6b4a" stroke-width="2.2" stroke-linecap="round"/>
<line x1="68.00" y1="58.00" x2="72.67" y2="53.33" stroke="#ff6b4a" stroke-width="2.2" stroke-linecap="round"/>
<line x1="50.00" y1="62.00" x2="45.33" y2="65.33" stroke="#ff6b4a" stroke-width="2.2" stroke-linecap="round"/>
<line x1="50.00" y1="62.00" x2="58.00" y2="62.50" stroke="#ff6b4a" stroke-width="2.2" stroke-linecap="round"/>
<line x1="62.00" y1="62.00" x2="59.00" y2="69.00" stroke="#ff6b4a" stroke-width="2.2" stroke-linecap="round"/>
<line x1="36.00" y1="101.33" x2="36.00" y2="94.67" stroke="#ff6b4a" stroke-width="2.2" stroke-linecap="round"/>
<line x1="36.00" y1="49.33" x2="36.00" y2="42.67" stroke="#ff6b4a" stroke-width="2.2" stroke-linecap="round"/>
<line x1="36.00" y1="29.33" x2="36.00" y2="22.67" stroke="#ff6b4a" stroke-width="2.2" stroke-linecap="round"/>
<line x1="82.00" y1="98.00" x2="82.00" y2="92.00" stroke="#ff6b4a" stroke-width="2.2" stroke-linecap="round"/>
<line x1="82.00" y1="78.67" x2="82.00" y2="71.33" stroke="#ff6b4a" stroke-width="2.2" stroke-linecap="round"/>
<line x1="82.00" y1="57.33" x2="82.00" y2="50.67" stroke="#ff6b4a" stroke-width="2.2" stroke-linecap="round"/>
<line x1="81.33" y1="24.00" x2="80.67" y2="18.00" stroke="#ff6b4a" stroke-width="2.2" stroke-linecap="round"/>
<line x1="25.33" y1="21.33" x2="30.67" y2="18.67" stroke="#ff6b4a" stroke-width="2.2" stroke-linecap="round"/>
<line x1="44.80" y1="15.20" x2="53.60" y2="14.40" stroke="#ff6b4a" stroke-width="2.2" stroke-linecap="round"/>
<line x1="53.60" y1="14.40" x2="62.40" y2="13.60" stroke="#ff6b4a" stroke-width="2.2" stroke-linecap="round"/>
<line x1="62.40" y1="13.60" x2="71.20" y2="12.80" stroke="#ff6b4a" stroke-width="2.2" stroke-linecap="round"/>
<line x1="87.33" y1="13.33" x2="94.67" y2="14.67" stroke="#ff6b4a" stroke-width="2.2" stroke-linecap="round"/>
<line x1="25.33" y1="44.00" x2="30.67" y2="40.00" stroke="#ff6b4a" stroke-width="2.2" stroke-linecap="round"/>
<line x1="45.20" y1="34.80" x2="54.40" y2="33.60" stroke="#ff6b4a" stroke-width="2.2" stroke-linecap="round"/>
<line x1="54.40" y1="33.60" x2="63.60" y2="32.40" stroke="#ff6b4a" stroke-width="2.2" stroke-linecap="round"/>
<line x1="63.60" y1="32.40" x2="72.80" y2="31.20" stroke="#ff6b4a" stroke-width="2.2" stroke-linecap="round"/>
<line x1="88.67" y1="35.33" x2="95.33" y2="40.67" stroke="#ff6b4a" stroke-width="2.2" stroke-linecap="round"/>
<line x1="40.67" y1="68.67" x2="45.33" y2="65.33" stroke="#ff6b4a" stroke-width="2.2" stroke-linecap="round"/>
<line x1="58.00" y1="62.50" x2="66.00" y2="63.00" stroke="#ff6b4a" stroke-width="2.2" stroke-linecap="round"/>
<line x1="66.00" y1="63.00" x2="74.00" y2="63.50" stroke="#ff6b4a" stroke-width="2.2" stroke-linecap="round"/>
<line x1="25.33" y1="93.33" x2="30.67" y2="90.67" stroke="#ff6b4a" stroke-width="2.2" stroke-linecap="round"/>
<line x1="44.67" y1="88.67" x2="53.33" y2="89.33" stroke="#ff6b4a" stroke-width="2.2" stroke-linecap="round"/>
<line x1="68.67" y1="88.67" x2="75.33" y2="87.33" stroke="#ff6b4a" stroke-width="2.2" stroke-linecap="round"/>
<line x1="88.67" y1="84.00" x2="95.33" y2="82.00" stroke="#ff6b4a" stroke-width="2.2" stroke-linecap="round"/>
<line x1="45.20" y1="107.20" x2="54.40" y2="106.40" stroke="#ff6b4a" stroke-width="2.2" stroke-linecap="round"/>
<line x1="54.40" y1="106.40" x2="63.60" y2="105.60" stroke="#ff6b4a" stroke-width="2.2" stroke-linecap="round"/>
<line x1="63.60" y1="105.60" x2="72.80" y2="104.80" stroke="#ff6b4a" stroke-width="2.2" stroke-linecap="round"/>
<line x1="60.00" y1="70.00" x2="64.00" y2="64.00" stroke="#ff6b4a" stroke-width="2.2" stroke-linecap="round"/>
<line x1="72.67" y1="53.33" x2="77.33" y2="48.67" stroke="#ff6b4a" stroke-width="2.2" stroke-linecap="round"/>
<line x1="42.67" y1="84.00" x2="49.33" y2="80.00" stroke="#ff6b4a" stroke-width="2.2" stroke-linecap="round"/>
<line x1="20.00" y1="96.00" x2="12.00" y2="90.00" stroke="#3f7cff" stroke-width="2.4" stroke-linecap="round"/>
<line x1="20.00" y1="84.00" x2="28.00" y2="86.00" stroke="#3f7cff" stroke-width="2.4" stroke-linecap="round"/>
<line x1="20.00" y1="72.00" x2="36.00" y2="72.00" stroke="#3f7cff" stroke-width="2.4" stroke-linecap="round"/>
<line x1="20.00" y1="72.00" x2="12.00" y2="72.00" stroke="#3f7cff" stroke-width="2.4" stroke-linecap="round"/>
<line x1="20.00" y1="60.00" x2="12.00" y2="50.00" stroke="#3f7cff" stroke-width="2.4" stroke-linecap="round"/>
<line x1="20.00" y1="60.00" x2="28.00" y2="58.00" stroke="#3f7cff" stroke-width="2.4" stroke-linecap="round"/>
<line x1="20.00" y1="60.00" x2="28.00" y2="66.00" stroke="#3f7cff" stroke-width="2.4" stroke-linecap="round"/>
<line x1="20.00" y1="36.00" x2="28.00" y2="36.00" stroke="#3f7cff" stroke-width="2.4" stroke-linecap="round"/>
<line x1="20.00" y1="24.00" x2="12.00" y2="28.00" stroke="#3f7cff" stroke-width="2.4" stroke-linecap="round"/>
<line x1="36.00" y1="108.00" x2="49.00" y2="99.00" stroke="#3f7cff" stroke-width="2.4" stroke-linecap="round"/>
<line x1="36.00" y1="88.00" x2="28.00" y2="86.00" stroke="#3f7cff" stroke-width="2.4" stroke-linecap="round"/>
<line x1="36.00" y1="88.00" x2="42.00" y2="94.00" stroke="#3f7cff" stroke-width="2.4" stroke-linecap="round"/>
<line x1="36.00" y1="72.00" x2="28.00" y2="66.00" stroke="#3f7cff" stroke-width="2.4" stroke-linecap="round"/>
<line x1="36.00" y1="72.00" x2="46.00" y2="74.00" stroke="#3f7cff" stroke-width="2.4" stroke-linecap="round"/>
<line x1="36.00" y1="56.00" x2="36.00" y2="46.00" stroke="#3f7cff" stroke-width="2.4" stroke-linecap="round"/>
<line x1="36.00" y1="56.00" x2="28.00" y2="58.00" stroke="#3f7cff" stroke-width="2.4" stroke-linecap="round"/>
<line x1="36.00" y1="36.00" x2="28.00" y2="36.00" stroke="#3f7cff" stroke-width="2.4" stroke-linecap="round"/>
<line x1="36.00" y1="36.00" x2="36.00" y2="46.00" stroke="#3f7cff" stroke-width="2.4" stroke-linecap="round"/>
<line x1="56.00" y1="76.00" x2="50.00" y2="62.00" stroke="#3f7cff" stroke-width="2.4" stroke-linecap="round"/>
<line x1="56.00" y1="76.00" x2="46.00" y2="74.00" stroke="#3f7cff" stroke-width="2.4" stroke-linecap="round"/>
<line x1="62.00" y1="90.00" x2="72.00" y2="88.00" stroke="#3f7cff" stroke-width="2.4" stroke-linecap="round"/>
<line x1="62.00" y1="90.00" x2="49.00" y2="99.00" stroke="#3f7cff" stroke-width="2.4" stroke-linecap="round"/>
<line x1="62.00" y1="90.00" x2="72.00" y2="88.00" stroke="#3f7cff" stroke-width="2.4" stroke-linecap="round"/>
<line x1="68.00" y1="94.00" x2="80.00" y2="94.00" stroke="#3f7cff" stroke-width="2.4" stroke-linecap="round"/>
<line x1="82.00" y1="86.00" x2="72.00" y2="88.00" stroke="#3f7cff" stroke-width="2.4" stroke-linecap="round"/>
<line x1="82.00" y1="86.00" x2="92.00" y2="83.00" stroke="#3f7cff" stroke-width="2.4" stroke-linecap="round"/>
<line x1="82.00" y1="86.00" x2="72.00" y2="88.00" stroke="#3f7cff" stroke-width="2.4" stroke-linecap="round"/>
<line x1="82.00" y1="64.00" x2="94.00" y2="68.00" stroke="#3f7cff" stroke-width="2.4" stroke-linecap="round"/>
<line x1="82.00" y1="64.00" x2="68.00" y2="58.00" stroke="#3f7cff" stroke-width="2.4" stroke-linecap="round"/>
<line x1="82.00" y1="64.00" x2="72.00" y2="63.00" stroke="#3f7cff" stroke-width="2.4" stroke-linecap="round"/>
<line x1="82.00" y1="64.00" x2="82.00" y2="54.00" stroke="#3f7cff" stroke-width="2.4" stroke-linecap="round"/>
<line x1="82.00" y1="44.00" x2="74.00" y2="43.00" stroke="#3f7cff" stroke-width="2.4" stroke-linecap="round"/>
<line x1="82.00" y1="44.00" x2="82.00" y2="54.00" stroke="#3f7cff" stroke-width="2.4" stroke-linecap="round"/>
<line x1="82.00" y1="30.00" x2="92.00" y2="38.00" stroke="#3f7cff" stroke-width="2.4" stroke-linecap="round"/>
<line x1="80.00" y1="12.00" x2="91.00" y2="14.00" stroke="#3f7cff" stroke-width="2.4" stroke-linecap="round"/>
<line x1="102.00" y1="16.00" x2="91.00" y2="14.00" stroke="#3f7cff" stroke-width="2.4" stroke-linecap="round"/>
<line x1="102.00" y1="46.00" x2="92.00" y2="38.00" stroke="#3f7cff" stroke-width="2.4" stroke-linecap="round"/>
<line x1="102.00" y1="80.00" x2="97.00" y2="87.00" stroke="#3f7cff" stroke-width="2.4" stroke-linecap="round"/>
<line x1="102.00" y1="80.00" x2="92.00" y2="83.00" stroke="#3f7cff" stroke-width="2.4" stroke-linecap="round"/>
<line x1="92.00" y1="94.00" x2="80.00" y2="94.00" stroke="#3f7cff" stroke-width="2.4" stroke-linecap="round"/>
<line x1="92.00" y1="94.00" x2="97.00" y2="87.00" stroke="#3f7cff" stroke-width="2.4" stroke-linecap="round"/>
<line x1="66.00" y1="42.00" x2="74.00" y2="43.00" stroke="#3f7cff" stroke-width="2.4" stroke-linecap="round"/>
<line x1="48.00" y1="100.00" x2="42.00" y2="94.00" stroke="#3f7cff" stroke-width="2.4" stroke-linecap="round"/>
<line x1="50.00" y1="62.00" x2="62.00" y2="62.00" stroke="#3f7cff" stroke-width="2.4" stroke-linecap="round"/>
<line x1="62.00" y1="62.00" x2="72.00" y2="63.00" stroke="#3f7cff" stroke-width="2.4" stroke-linecap="round"/>
<circle cx="20.00" cy="108.00" r="1.8" fill="#14866d"/>
<circle cx="20.00" cy="96.00" r="1.8" fill="#14866d"/>
<circle cx="20.00" cy="84.00" r="1.8" fill="#14866d"/>
<circle cx="20.00" cy="72.00" r="1.8" fill="#14866d"/>
<circle cx="20.00" cy="60.00" r="1.8" fill="#14866d"/>
<circle cx="20.00" cy="48.00" r="1.8" fill="#14866d"/>
<circle cx="20.00" cy="36.00" r="1.8" fill="#14866d"/>
<circle cx="20.00" cy="24.00" r="1.8" fill="#14866d"/>
<circle cx="20.00" cy="12.00" r="1.8" fill="#14866d"/>
<circle cx="36.00" cy="108.00" r="1.8" fill="#14866d"/>
<circle cx="36.00" cy="88.00" r="1.8" fill="#14866d"/>
<circle cx="36.00" cy="72.00" r="1.8" fill="#14866d"/>
<circle cx="36.00" cy="56.00" r="1.8" fill="#14866d"/>
<circle cx="36.00" cy="36.00" r="1.8" fill="#14866d"/>
<circle cx="36.00" cy="16.00" r="1.8" fill="#14866d"/>
<circle cx="56.00" cy="76.00" r="1.8" fill="#14866d"/>
<circle cx="62.00" cy="90.00" r="1.8" fill="#14866d"/>
<circle cx="68.00" cy="94.00" r="1.8" fill="#14866d"/>
<circle cx="82.00" cy="104.00" r="1.8" fill="#14866d"/>
<circle cx="82.00" cy="86.00" r="1.8" fill="#14866d"/>
<circle cx="82.00" cy="64.00" r="1.8" fill="#14866d"/>
<text x="82.00" y="48.00" text-anchor="middle" font-size="14" fill="#14866d">★</text>
<circle cx="82.00" cy="30.00" r="1.8" fill="#14866d"/>
<circle cx="80.00" cy="12.00" r="1.8" fill="#14866d"/>
<circle cx="102.00" cy="16.00" r="1.8" fill="#14866d"/>
<circle cx="102.00" cy="46.00" r="1.8" fill="#14866d"/>
<circle cx="102.00" cy="80.00" r="1.8" fill="#14866d"/>
<circle cx="94.00" cy="110.00" r="1.8" fill="#14866d"/>
<circle cx="92.00" cy="94.00" r="1.8" fill="#14866d"/>
<circle cx="94.00" cy="68.00" r="1.8" fill="#14866d"/>
<circle cx="68.00" cy="58.00" r="1.8" fill="#14866d"/>
<circle cx="66.00" cy="42.00" r="1.8" fill="#14866d"/>
<circle cx="12.00" cy="90.00" r="1.8" fill="#14866d"/>
<circle cx="12.00" cy="72.00" r="1.8" fill="#14866d"/>
<circle cx="12.00" cy="50.00" r="1.8" fill="#14866d"/>
<circle cx="12.00" cy="28.00" r="1.8" fill="#14866d"/>
<circle cx="48.00" cy="100.00" r="1.8" fill="#14866d"/>
<circle cx="50.00" cy="62.00" r="1.8" fill="#14866d"/>
<circle cx="62.00" cy="62.00" r="1.8" fill="#14866d"/>
<circle cx="28.00" cy="36.00" r="1.8" fill="#14866d"/>
<circle cx="36.00" cy="46.00" r="1.8" fill="#14866d"/>
<circle cx="28.00" cy="58.00" r="1.8" fill="#14866d"/>
<circle cx="28.00" cy="66.00" r="1.8" fill="#14866d"/>
<circle cx="46.00" cy="74.00" r="1.8" fill="#14866d"/>
<circle cx="28.00" cy="86.00" r="1.8" fill="#14866d"/>
<circle cx="42.00" cy="94.00" r="1.8" fill="#14866d"/>
<circle cx="72.00" cy="63.00" r="1.8" fill="#14866d"/>
<circle cx="74.00" cy="43.00" r="1.8" fill="#14866d"/>
<circle cx="82.00" cy="54.00" r="1.8" fill="#14866d"/>
<circle cx="80.00" cy="94.00" r="1.8" fill="#14866d"/>
<circle cx="97.00" cy="87.00" r="1.8" fill="#14866d"/>
<circle cx="72.00" cy="88.00" r="1.8" fill="#14866d"/>
<circle cx="92.00" cy="83.00" r="1.8" fill="#14866d"/>
<circle cx="49.00" cy="99.00" r="1.8" fill="#14866d"/>
<circle cx="72.00" cy="88.00" r="1.8" fill="#14866d"/>
<circle cx="92.00" cy="38.00" r="1.8" fill="#14866d"/>
<circle cx="91.00" cy="14.00" r="1.8" fill="#14866d"/>
<circle cx="20.00" cy="102.00" r="1.8" fill="#14866d"/>
<circle cx="20.00" cy="90.00" r="1.8" fill="#14866d"/>
<circle cx="20.00" cy="78.00" r="1.8" fill="#14866d"/>
<circle cx="20.00" cy="66.00" r="1.8" fill="#14866d"/>
<circle cx="20.00" cy="54.00" r="1.8" fill="#14866d"/>
<circle cx="20.00" cy="42.00" r="1.8" fill="#14866d"/>
<circle cx="20.00" cy="30.00" r="1.8" fill="#14866d"/>
<circle cx="20.00" cy="18.00" r="1.8" fill="#14866d"/>
<circle cx="36.00" cy="101.33" r="1.8" fill="#14866d"/>
<circle cx="36.00" cy="94.67" r="1.8" fill="#14866d"/>
<circle cx="36.00" cy="80.00" r="1.8" fill="#14866d"/>
<circle cx="36.00" cy="64.00" r="1.8" fill="#14866d"/>
<circle cx="36.00" cy="49.33" r="1.8" fill="#14866d"/>
<circle cx="36.00" cy="42.67" r="1.8" fill="#14866d"/>
<circle cx="36.00" cy="29.33" r="1.8" fill="#14866d"/>
<circle cx="36.00" cy="22.67" r="1.8" fill="#14866d"/>
<circle cx="82.00" cy="98.00" r="1.8" fill="#14866d"/>
<circle cx="82.00" cy="92.00" r="1.8" fill="#14866d"/>
<circle cx="82.00" cy="78.67" r="1.8" fill="#14866d"/>
<circle cx="82.00" cy="71.33" r="1.8" fill="#14866d"/>
<circle cx="82.00" cy="57.33" r="1.8" fill="#14866d"/>
<circle cx="82.00" cy="50.67" r="1.8" fill="#14866d"/>
<circle cx="82.00" cy="37.00" r="1.8" fill="#14866d"/>
<circle cx="81.33" cy="24.00" r="1.8" fill="#14866d"/>
<circle cx="80.67" cy="18.00" r="1.8" fill="#14866d"/>
<circle cx="25.33" cy="21.33" r="1.8" fill="#14866d"/>
<circle cx="30.67" cy="18.67" r="1.8" fill="#14866d"/>
<circle cx="44.80" cy="15.20" r="1.8" fill="#14866d"/>
<circle cx="53.60" cy="14.40" r="1.8" fill="#14866d"/>
<circle cx="62.40" cy="13.60" r="1.8" fill="#14866d"/>
<circle cx="71.20" cy="12.80" r="1.8" fill="#14866d"/>
<circle cx="87.33" cy="13.33" r="1.8" fill="#14866d"/>
<circle cx="94.67" cy="14.67" r="1.8" fill="#14866d"/>
<circle cx="25.33" cy="44.00" r="1.8" fill="#14866d"/>
<circle cx="30.67" cy="40.00" r="1.8" fill="#14866d"/>
<circle cx="45.20" cy="34.80" r="1.8" fill="#14866d"/>
<circle cx="54.40" cy="33.60" r="1.8" fill="#14866d"/>
<circle cx="63.60" cy="32.40" r="1.8" fill="#14866d"/>
<circle cx="72.80" cy="31.20" r="1.8" fill="#14866d"/>
<circle cx="88.67" cy="35.33" r="1.8" fill="#14866d"/>
<circle cx="95.33" cy="40.67" r="1.8" fill="#14866d"/>
<circle cx="28.00" cy="72.00" r="1.8" fill="#14866d"/>
<circle cx="40.67" cy="68.67" r="1.8" fill="#14866d"/>
<circle cx="45.33" cy="65.33" r="1.8" fill="#14866d"/>
<circle cx="58.00" cy="62.50" r="1.8" fill="#14866d"/>
<circle cx="66.00" cy="63.00" r="1.8" fill="#14866d"/>
<circle cx="74.00" cy="63.50" r="1.8" fill="#14866d"/>
<circle cx="25.33" cy="93.33" r="1.8" fill="#14866d"/>
<circle cx="30.67" cy="90.67" r="1.8" fill="#14866d"/>
<circle cx="44.67" cy="88.67" r="1.8" fill="#14866d"/>
<circle cx="53.33" cy="89.33" r="1.8" fill="#14866d"/>
<circle cx="68.67" cy="88.67" r="1.8" fill="#14866d"/>
<circle cx="75.33" cy="87.33" r="1.8" fill="#14866d"/>
<circle cx="88.67" cy="84.00" r="1.8" fill="#14866d"/>
<circle cx="95.33" cy="82.00" r="1.8" fill="#14866d"/>
<circle cx="28.00" cy="108.00" r="1.8" fill="#14866d"/>
<circle cx="45.20" cy="107.20" r="1.8" fill="#14866d"/>
<circle cx="54.40" cy="106.40" r="1.8" fill="#14866d"/>
<circle cx="63.60" cy="105.60" r="1.8" fill="#14866d"/>
<circle cx="72.80" cy="104.80" r="1.8" fill="#14866d"/>
<circle cx="88.00" cy="107.00" r="1.8" fill="#14866d"/>
<circle cx="60.00" cy="70.00" r="1.8" fill="#14866d"/>
<circle cx="64.00" cy="64.00" r="1.8" fill="#14866d"/>
<circle cx="72.67" cy="53.33" r="1.8" fill="#14866d"/>
<circle cx="77.33" cy="48.67" r="1.8" fill="#14866d"/>
<circle cx="42.67" cy="84.00" r="1.8" fill="#14866d"/>
<circle cx="49.33" cy="80.00" r="1.8" fill="#14866d"/>
<circle cx="59.00" cy="69.00" r="1.8" fill="#14866d"/>
<circle cx="93.00" cy="102.00" r="1.8" fill="#14866d"/>
<circle cx="97.00" cy="87.00" r="1.8" fill="#14866d"/>
</svg>
